<svg xmlns="http://www.w3.org/2000/svg" data-name="cigna-logo" viewBox="0 0 145.69999 50.099997" id="cigna-logo">
 <path fill="#188ccc" d="m16.7 21.4c1.2 0 8.9 3.4 8.9 15.8 0 5.9-2 10.8-3.1 10.8-0.5 0-0.7-0.5-0.7-1.5 0-2.2 0.8-4.1 0.8-8.8 0-9-3.7-12.6-5.3-14.7-0.5-0.6-0.9-1-0.9-1.4 0-0.1 0.1-0.2 0.3-0.2m19.4 0.3c0 0.4-0.4 0.7-0.9 1.4-1.6 2-5.3 5.7-5.3 14.7 0 4.7 0.8 6.6 0.8 8.8 0 1-0.2 1.5-0.7 1.5-1.2 0-3.1-4.9-3.1-10.8 0-12.3 7.7-15.8 8.9-15.8 0.2-0.1 0.3 0 0.3 0.2"/><path fill="#f68621" d="m23.5 23.8c0 1.6 1.3 2.9 2.8 2.9 1.6 0 2.8-1.3 2.8-2.9s-1.3-2.9-2.8-2.9c-1.6 0-2.8 1.3-2.8 2.9"/><path fill="#39b54a" d="m11.7 19.2c-1.5-0.7-2.6-2-2.7-3.3 1.1-0.7 2.8-0.8 4.3-0.1s1.9 1.9 1.9 2.9c-0.9 0.7-2 1.2-3.5 0.5m4.2-7.8c-0.9-1.5-1.2-3.3-0.6-4.6 1.4 0 3 0.9 3.9 2.4 1 1.5 0.6 2.8 0 3.8-1 0.1-2.3-0.1-3.3-1.6m2.2 7.8c-1.2-1-1.8-2.5-1.6-3.8 1.2-0.4 2.8 0 3.9 1 1.2 1 1.2 2.2 1 3.2-1 0.4-2.1 0.6-3.3-0.4m3.5-3.8c-0.5-1.6-0.2-3.5 0.7-4.5 1.3 0.4 2.6 1.7 3.1 3.3 0.5 1.7-0.2 2.8-1 3.6-1.1-0.1-2.2-0.7-2.8-2.4m-6.1 12c-1.2 0.2-2.4-0.1-3-0.8 0.3-0.9 1.4-1.7 2.5-1.9 1.2-0.2 1.9 0.3 2.4 0.9-0.2 0.7-0.7 1.5-1.9 1.8m-3.1-3.5c-1.3-0.1-2.5-0.9-3-1.9 0.7-0.9 2-1.3 3.3-1.2 1.4 0.2 2 1 2.2 1.8-0.3 0.8-1.1 1.5-2.5 1.3m-0.1-9.9c-1-0.9-1.6-2.2-1.5-3.3 1.1-0.3 2.5 0 3.5 0.9 1.1 0.9 1.1 2 0.9 2.8-0.8 0.3-1.8 0.5-2.9-0.4m7.1-7.1c-0.4-1.3-0.2-2.9 0.5-3.7 1.1 0.3 2.1 1.4 2.6 2.8 0.4 1.4-0.1 2.4-0.8 3-0.9-0.2-1.9-0.6-2.3-2.1m-17.4 35.4v0c0.1 0.1 0.2 0 0.3 0 4.2-1.5 10.3-3.3 18.9-3.9 0-0.1 0.1-0.5 0.1-0.8 0-0.6-0.1-1.3-0.1-1.4-8.8 0.8-14.9 3.4-18.9 5.9-0.2 0.2-0.3 0.2-0.3 0.2m22-35.6c0-2 0.9-3.9 2.3-4.7 1.3 0.9 2.3 2.8 2.3 4.7 0 2.1-1.1 3.1-2.3 3.6-1.2-0.5-2.3-1.5-2.3-3.6m13.4 12c0-1 0.4-2.2 1.9-2.9s3.2-0.6 4.3 0.1c-0.2 1.3-1.3 2.7-2.7 3.3-1.6 0.7-2.7 0.2-3.5-0.5m-4.1-5.7c-0.6-1-0.9-2.2 0-3.8 0.9-1.5 2.5-2.4 3.9-2.4 0.6 1.3 0.4 3.1-0.6 4.6-0.9 1.5-2.2 1.7-3.3 1.6m-2.1 6.6c-0.3-1-0.2-2.1 1-3.2 1.2-1 2.8-1.4 3.9-1 0.2 1.2-0.5 2.8-1.6 3.8-1.3 1-2.4 0.8-3.3 0.4m-3.1-1.8c-0.8-0.7-1.5-1.9-1-3.6 0.5-1.6 1.7-3 3.1-3.3 0.9 1.1 1.2 2.9 0.7 4.5-0.5 1.7-1.7 2.3-2.8 2.4m7.1 7.8c0.4-0.6 1.2-1.2 2.4-0.9 1.2 0.2 2.2 1 2.5 1.9-0.7 0.7-1.9 1-3 0.8-1.3-0.3-1.7-1.1-1.9-1.8m2.3-3c0.3-0.8 0.9-1.7 2.2-1.8s2.7 0.3 3.3 1.2c-0.5 1-1.7 1.7-3 1.9s-2-0.5-2.5-1.3m-0.2-8.2c-0.2-0.8-0.2-1.9 0.9-2.8 1-0.9 2.4-1.2 3.5-0.9 0.2 1.1-0.4 2.4-1.5 3.3s-2.1 0.7-2.9 0.4m-6.5-5.5c-0.7-0.6-1.2-1.5-0.8-3 0.4-1.4 1.5-2.5 2.6-2.8 0.7 0.9 1 2.4 0.6 3.8-0.5 1.5-1.5 1.9-2.4 2m19.5 33.3c-4-2.5-10.1-5.1-18.9-5.9 0 0.1-0.1 0.8-0.1 1.4 0 0.3 0.1 0.7 0.1 0.8 8.6 0.6 14.7 2.4 18.9 3.9 0.1 0 0.2 0.1 0.2 0.1s0.1 0 0.1-0.1c-0.1-0.1-0.1-0.1-0.3-0.2"/><path fill="#188ccc" d="m73.1 15.5c0 1.3 1.1 2.4 2.4 2.4s2.4-1.1 2.4-2.4-1.1-2.4-2.4-2.4c-1.4 0-2.4 1.1-2.4 2.4m18.8 12.6c0 3.8-1.5 5.4-3.6 5.4s-3.3-1.8-3.3-5c0-3.3 1.9-6 5.3-6 0.7 0 1.2 0.1 1.6 0.2v5.4zm0.2 6.2v1.2c0 3.4-2.1 4.7-4.6 4.7-2.3 0-4-0.7-4.5-0.9v3.3c0.4 0.1 2.3 0.7 5 0.7 4.7 0 7.9-2 7.9-8.7v-14.5c-0.6-0.2-2.8-0.7-5.4-0.7-6.6 0-9.5 4.5-9.5 9.3 0 4.5 2.2 7.9 6.5 7.9 2.8 0.1 4.1-1.7 4.6-2.3zm-22.5-2.1c-1.1 0.5-2.8 0.8-4.4 0.8-4.5 0-7.8-3.2-7.8-8.2 0-4.9 3.3-8.2 7.8-8.2 2.2 0 3.8 0.5 4.4 0.8v-3.4c-1-0.4-2.6-0.7-4.8-0.7-7 0-11.6 4.9-11.6 11.6 0 6.4 4.3 11.6 11.6 11.6 2.1 0 3.8-0.3 4.8-0.7v-3.6zm59.1-4.1c0 3.8-1.5 5.4-3.6 5.4s-3.3-1.8-3.3-5c0-3.3 1.9-6 5.3-6 0.7 0 1.2 0.1 1.6 0.2v5.4zm4.4 8.2c-0.1-0.9-0.5-3.4-0.5-5.4v-10.8c-0.6-0.2-2.8-0.7-5.4-0.7-6.6 0-9.5 4.5-9.5 9.3 0 4.5 2.2 7.9 6.5 7.9 3.1 0 4.5-2 5-3.1h0.1c0 0.5 0.2 2.3 0.2 2.7h3.6zm-55.7-16.5h-3.9v16.5h3.9v-16.5zm22.8 16.5v-11.4c0-1.5-0.1-4.5-0.2-5.1h3.5l0.2 2.3h0.1c0.4-0.6 1.7-2.7 4.8-2.7 3.7 0 5.7 2.7 5.7 6.2v10.7h-3.9v-10c0-2.1-1.2-3.7-3.1-3.7-2.1 0-3.1 1.7-3.1 3.7v10h-4z"/><path fill="#188ccc" d="m140.4 30.9c-0.2-0.1-0.5-0.2-0.9-0.2h-0.7v1.6h0.7c0.3 0 0.6 0 0.7-0.1 0.3-0.1 0.4-0.3 0.4-0.7 0.1-0.3 0-0.5-0.2-0.6m-0.8-0.7c0.5 0 0.9 0.1 1.2 0.2 0.4 0.2 0.7 0.6 0.7 1.1 0 0.4-0.1 0.7-0.4 0.9-0.1 0.1-0.4 0.2-0.6 0.2 0.3 0.1 0.6 0.2 0.7 0.4 0.2 0.2 0.2 0.5 0.2 0.7v0.3 0.3 0.2 0.1h-0.7v-0.1-0.5c0-0.5-0.1-0.8-0.4-1-0.2-0.1-0.4-0.1-0.8-0.1h-0.6v1.7h-0.8v-4.4h1.5zm-2.3-0.2c-0.7 0.7-1 1.5-1 2.4 0 1 0.3 1.8 1 2.4 0.7 0.7 1.5 1 2.4 1s1.7-0.3 2.4-1 1-1.5 1-2.4-0.3-1.8-1-2.4c-0.7-0.7-1.5-1-2.4-1-1 0-1.8 0.3-2.4 1m5.1 5.2c-0.8 0.8-1.7 1.2-2.8 1.2s-2-0.4-2.8-1.2-1.1-1.7-1.1-2.8 0.4-2 1.2-2.8 1.7-1.2 2.8-1.2 2 0.4 2.8 1.2 1.2 1.7 1.2 2.8c-0.1 1.1-0.5 2.1-1.3 2.8"/>
</svg>